HIERARCHY
ROOT Hips
{
    OFFSET 0.000000 0.000000 0.000000
    CHANNELS 6 Xposition Yposition Zposition Zrotation Xrotation Yrotation
    JOINT Spine
    {
        OFFSET 0.000001 8.252734 -0.000004
        CHANNELS 3 Zrotation Xrotation Yrotation
        JOINT Spine1
        {
            OFFSET 0.000024 21.307178 -0.000033
            CHANNELS 3 Zrotation Xrotation Yrotation
            JOINT Neck
            {
                OFFSET -0.000004 22.341335 -0.000003
                CHANNELS 3 Zrotation Xrotation Yrotation
                JOINT Head
                {
                    OFFSET -0.000002 14.327763 1.902230
                    CHANNELS 3 Zrotation Xrotation Yrotation
                    End Site
                    {
                        OFFSET 0.000000 19.022141 0.000000
                    }
                }
            }
            JOINT LeftShoulder
            {
                OFFSET 3.797836 16.121193 -0.677311
                CHANNELS 3 Zrotation Xrotation Yrotation
                JOINT LeftArm
                {
                    OFFSET 11.576593 -0.000003 -0.000016
                    CHANNELS 3 Zrotation Xrotation Yrotation
                    JOINT LeftForeArm
                    {
                        OFFSET 29.906404 0.000012 0.000004
                        CHANNELS 3 Zrotation Xrotation Yrotation
                        JOINT LeftHand
                        {
                            OFFSET 24.318317 0.000009 -0.000010
                            CHANNELS 3 Zrotation Xrotation Yrotation
                            JOINT LeftHandThumb1
                            {
                                OFFSET 1.987825 -2.258880 3.162448
                                CHANNELS 3 Zrotation Xrotation Yrotation
                                JOINT LeftHandThumb2
                                {
                                    OFFSET 3.002311 0.000002 0.000008
                                    CHANNELS 3 Zrotation Xrotation Yrotation
                                    JOINT LeftHandThumb3
                                    {
                                        OFFSET 2.566073 -0.000012 -0.000014
                                        CHANNELS 3 Zrotation Xrotation Yrotation
                                        End Site
                                        {
                                            OFFSET 2.440626 0.000000 0.000000
                                        }
                                    }
                                }
                            }
                            JOINT LeftHandIndex1
                            {
                                OFFSET 8.131962 0.000001 3.162429
                                CHANNELS 3 Zrotation Xrotation Yrotation
                                JOINT LeftHandIndex2
                                {
                                    OFFSET 4.517762 0.000003 0.000013
                                    CHANNELS 3 Zrotation Xrotation Yrotation
                                    JOINT LeftHandIndex3
                                    {
                                        OFFSET 2.258869 -0.000006 -0.000014
                                        CHANNELS 3 Zrotation Xrotation Yrotation
                                        End Site
                                        {
                                            OFFSET 2.148437 0.000000 0.000000
                                        }
                                    }
                                }
                            }
                            JOINT LeftHandMiddle1
                            {
                                OFFSET 8.131949 0.000001 1.048099
                                CHANNELS 3 Zrotation Xrotation Yrotation
                                JOINT LeftHandMiddle2
                                {
                                    OFFSET 4.969545 0.000001 0.000017
                                    CHANNELS 3 Zrotation Xrotation Yrotation
                                    JOINT LeftHandMiddle3
                                    {
                                        OFFSET 2.710648 0.000001 -0.000008
                                        CHANNELS 3 Zrotation Xrotation Yrotation
                                        End Site
                                        {
                                            OFFSET 2.578118 0.000000 0.000000
                                        }
                                    }
                                }
                            }
                            JOINT LeftHandRing1
                            {
                                OFFSET 7.680187 0.000003 -1.048116
                                CHANNELS 3 Zrotation Xrotation Yrotation
                                JOINT LeftHandRing2
                                {
                                    OFFSET 4.517762 0.000000 0.000013
                                    CHANNELS 3 Zrotation Xrotation Yrotation
                                    JOINT LeftHandRing3
                                    {
                                        OFFSET 2.258869 -0.000004 -0.000015
                                        CHANNELS 3 Zrotation Xrotation Yrotation
                                        End Site
                                        {
                                            OFFSET 2.148437 0.000000 0.000000
                                        }
                                    }
                                }
                            }
                            JOINT LeftHandPinky1
                            {
                                OFFSET 7.228425 0.000002 -3.162411
                                CHANNELS 3 Zrotation Xrotation Yrotation
                                JOINT LeftHandPinky2
                                {
                                    OFFSET 3.614209 0.000005 0.000002
                                    CHANNELS 3 Zrotation Xrotation Yrotation
                                    JOINT LeftHandPinky3
                                    {
                                        OFFSET 1.807094 0.000009 -0.000020
                                        CHANNELS 3 Zrotation Xrotation Yrotation
                                        End Site
                                        {
                                            OFFSET 1.718745 0.000000 0.000000
                                        }
                                    }
                                }
                            }
                        }
                    }
                }
            }
            JOINT RightShoulder
            {
                OFFSET -3.797818 16.121193 -0.677313
                CHANNELS 3 Zrotation Xrotation Yrotation
                JOINT RightArm
                {
                    OFFSET -11.576586 0.000001 0.000006
                    CHANNELS 3 Zrotation Xrotation Yrotation
                    JOINT RightForeArm
                    {
                        OFFSET -29.906404 0.000003 -0.000001
                        CHANNELS 3 Zrotation Xrotation Yrotation
                        JOINT RightHand
                        {
                            OFFSET -24.318317 0.000003 -0.000004
                            CHANNELS 3 Zrotation Xrotation Yrotation
                            JOINT RightHandThumb1
                            {
                                OFFSET -1.987823 -2.258867 3.162436
                                CHANNELS 3 Zrotation Xrotation Yrotation
                                JOINT RightHandThumb2
                                {
                                    OFFSET -3.002313 0.000005 -0.000008
                                    CHANNELS 3 Zrotation Xrotation Yrotation
                                    JOINT RightHandThumb3
                                    {
                                        OFFSET -2.566091 0.000008 -0.000004
                                        CHANNELS 3 Zrotation Xrotation Yrotation
                                        End Site
                                        {
                                            OFFSET -2.440626 0.000000 0.000000
                                        }
                                    }
                                }
                            }
                            JOINT RightHandIndex1
                            {
                                OFFSET -8.131968 0.000009 3.162433
                                CHANNELS 3 Zrotation Xrotation Yrotation
                                JOINT RightHandIndex2
                                {
                                    OFFSET -4.517759 0.000001 -0.000000
                                    CHANNELS 3 Zrotation Xrotation Yrotation
                                    JOINT RightHandIndex3
                                    {
                                        OFFSET -2.258879 0.000001 0.000001
                                        CHANNELS 3 Zrotation Xrotation Yrotation
                                        End Site
                                        {
                                            OFFSET -2.148437 0.000000 0.000000
                                        }
                                    }
                                }
                            }
                            JOINT RightHandMiddle1
                            {
                                OFFSET -8.131955 -0.000015 1.048114
                                CHANNELS 3 Zrotation Xrotation Yrotation
                                JOINT RightHandMiddle2
                                {
                                    OFFSET -4.969545 0.000016 0.000007
                                    CHANNELS 3 Zrotation Xrotation Yrotation
                                    JOINT RightHandMiddle3
                                    {
                                        OFFSET -2.710665 0.000015 0.000008
                                        CHANNELS 3 Zrotation Xrotation Yrotation
                                        End Site
                                        {
                                            OFFSET -2.578118 0.000000 0.000000
                                        }
                                    }
                                }
                            }
                            JOINT RightHandRing1
                            {
                                OFFSET -7.680175 -0.000018 -1.048128
                                CHANNELS 3 Zrotation Xrotation Yrotation
                                JOINT RightHandRing2
                                {
                                    OFFSET -4.517758 0.000001 0.000003
                                    CHANNELS 3 Zrotation Xrotation Yrotation
                                    JOINT RightHandRing3
                                    {
                                        OFFSET -2.258879 0.000000 0.000001
                                        CHANNELS 3 Zrotation Xrotation Yrotation
                                        End Site
                                        {
                                            OFFSET -2.148437 0.000000 0.000000
                                        }
                                    }
                                }
                            }
                            JOINT RightHandPinky1
                            {
                                OFFSET -7.228397 -0.000016 -3.162437
                                CHANNELS 3 Zrotation Xrotation Yrotation
                                JOINT RightHandPinky2
                                {
                                    OFFSET -3.614212 0.000007 0.000006
                                    CHANNELS 3 Zrotation Xrotation Yrotation
                                    JOINT RightHandPinky3
                                    {
                                        OFFSET -1.807093 -0.000013 -0.000008
                                        CHANNELS 3 Zrotation Xrotation Yrotation
                                        End Site
                                        {
                                            OFFSET -1.718745 0.000000 0.000000
                                        }
                                    }
                                }
                            }
                        }
                    }
                }
            }
        }
    }
    JOINT LeftUpLeg
    {
        OFFSET 9.511075 -0.000004 -0.000016
        CHANNELS 3 Zrotation Xrotation Yrotation
        JOINT LeftLeg
        {
            OFFSET 0.000015 -43.875633 -0.000021
            CHANNELS 3 Zrotation Xrotation Yrotation
            JOINT LeftFoot
            {
                OFFSET 0.000011 -35.354156 -0.000016
                CHANNELS 3 Zrotation Xrotation Yrotation
                JOINT LeftToeBase
                {
                    OFFSET -0.000005 -6.182192 14.266607
                    CHANNELS 3 Zrotation Xrotation Yrotation
                    End Site
                    {
                        OFFSET 0.000000 0.000000 3.804428
                    }
                }
            }
        }
    }
    JOINT RightUpLeg
    {
        OFFSET -9.511075 0.000004 0.000016
        CHANNELS 3 Zrotation Xrotation Yrotation
        JOINT RightLeg
        {
            OFFSET 0.000010 -43.875641 -0.000015
            CHANNELS 3 Zrotation Xrotation Yrotation
            JOINT RightFoot
            {
                OFFSET -0.000006 -35.354149 0.000003
                CHANNELS 3 Zrotation Xrotation Yrotation
                JOINT RightToeBase
                {
                    OFFSET 0.000008 -6.182206 14.266582
                    CHANNELS 3 Zrotation Xrotation Yrotation
                    End Site
                    {
                        OFFSET 0.000000 0.000000 3.804428
                    }
                }
            }
        }
    }
}
MOTION
Frames:    5
Frame Time:    0.002778
36.338013    91.662552    598.263367    5.037366    -6.466296    -158.261978    -0.458852    5.870942    -1.391986    -2.294250    5.866453    -1.204303    5.131729    -1.594618    -15.171725    5.131728    -1.594617    -15.171725    2.268801    -2.211887    -1.326817    -59.083744    2.168859    -23.222816    -48.137768    8.345579    -72.587234    5.703103    0.339601    8.013460    47.448174    38.866432    -34.355026    -34.999969    -0.000012    0.000027    -0.000000    0.000000    -0.000000    -0.000003    10.000001    -0.000003    -0.000000    0.000000    -0.000000    -0.000000    0.000000    -0.000000    -0.000000    0.000000    -0.000000    -0.000000    0.000000    -0.000000    -0.000000    0.000000    -0.000000    -0.000000    0.000000    -0.000000    -0.000000    0.000000    -0.000000    -0.000000    0.000000    -0.000000    0.000000    -10.000000    0.000000    -0.000000    0.000000    -0.000000    -0.000000    0.000000    -0.000000    -8.260876    2.694218    3.342433    72.167702    7.777793    2.417323    3.413118    24.624037    77.963020    -54.544750    14.294473    -9.950374    -47.448208    38.866421    34.355038    35.000000    -0.000002    -0.000005    -0.000000    0.000000    -0.000000    0.000007    9.999999    -0.000000    -0.000000    0.000000    -0.000000    -0.000000    0.000000    -0.000000    -0.000000    0.000000    -0.000000    -0.000000    0.000000    -0.000000    -0.000000    0.000000    -0.000000    -0.000000    0.000000    -0.000000    -0.000000    0.000000    -0.000000    -0.000000    0.000000    -0.000000    -0.000000    -10.000004    -0.000005    -0.000000    0.000000    -0.000000    -0.000000    0.000000    -0.000000    16.142635    -18.531019    -1.058019    0.000002    27.822016    -0.000003    -11.358537    -16.738771    4.314221    -0.000000    0.444955    0.000000    -9.477957    -22.960535    -2.570441    0.000001    38.404938    -0.000000    12.278153    -16.632660    -13.200933    0.000000    -3.614077    0.000000    
36.403294    91.636185    598.303345    5.044262    -6.536617    -158.267441    -0.456362    5.886359    -1.416988    -2.281797    5.881912    -1.229835    5.132859    -1.521485    -15.150252    5.132859    -1.521485    -15.150251    2.262981    -2.202664    -1.353379    -59.056637    2.104132    -23.222942    -48.232315    8.441205    -72.623329    5.615361    0.325084    8.002481    47.448238    38.866432    -34.355038    -35.000023    0.000004    -0.000018    -0.000000    0.000000    -0.000000    -0.000000    10.000000    -0.000000    -0.000000    0.000000    -0.000000    -0.000000    0.000000    -0.000000    -0.000000    0.000000    -0.000000    -0.000000    0.000000    -0.000000    -0.000000    0.000000    -0.000000    -0.000000    0.000000    -0.000000    -0.000000    0.000000    -0.000000    -0.000000    0.000000    -0.000000    -0.000003    -10.000001    0.000003    -0.000000    0.000000    -0.000000    -0.000000    0.000000    -0.000000    -8.182225    2.548673    3.414401    72.024757    7.733356    2.327648    3.089693    24.716269    78.257874    -54.537220    14.396697    -10.018670    -47.448219    38.866432    34.355026    34.999992    -0.000001    0.000003    -0.000000    0.000000    -0.000000    -0.000000    10.000002    0.000002    -0.000000    0.000000    -0.000000    -0.000000    0.000000    -0.000000    -0.000000    0.000000    -0.000000    -0.000000    0.000000    -0.000000    -0.000000    0.000000    -0.000000    -0.000000    0.000000    -0.000000    -0.000000    0.000000    -0.000000    -0.000000    0.000000    -0.000000    -0.000000    -9.999995    -0.000002    -0.000000    0.000000    -0.000000    -0.000000    0.000000    -0.000000    16.168314    -18.704191    -1.024325    0.000002    27.962400    -0.000001    -11.350065    -16.733381    4.309988    -0.000000    0.448559    -0.000000    -9.490593    -23.164900    -2.624221    -0.000003    38.602188    0.000003    12.251061    -16.670387    -13.154700    -0.000000    -3.615310    -0.000000    
36.469051    91.610550    598.341064    5.043643    -6.589341    -158.262772    -0.452543    5.914566    -1.442689    -2.262697    5.910168    -1.256218    5.127810    -1.446145    -15.133373    5.127810    -1.446149    -15.133375    2.247494    -2.204698    -1.395223    -59.027733    2.040744    -23.229509    -48.316391    8.511999    -72.655312    5.562294    0.313645    7.971539    47.448204    38.866417    -34.355011    -35.000023    -0.000004    0.000006    -0.000000    0.000000    -0.000000    0.000003    10.000007    -0.000000    -0.000000    0.000000    -0.000000    -0.000000    0.000000    -0.000000    -0.000000    0.000000    -0.000000    -0.000000    0.000000    -0.000000    -0.000000    0.000000    -0.000000    -0.000000    0.000000    -0.000000    -0.000000    0.000000    -0.000000    -0.000000    0.000000    -0.000000    0.000001    -9.999998    0.000010    -0.000000    0.000000    -0.000000    -0.000000    0.000000    -0.000000    -8.126152    2.418415    3.481640    71.882622    7.706340    2.252838    2.978664    24.801949    78.505478    -54.195065    14.289208    -10.070297    -47.448219    38.866421    34.355034    35.000004    0.000005    -0.000002    -0.000000    0.000000    -0.000000    0.000002    9.999998    -0.000004    -0.000000    0.000000    -0.000000    -0.000000    0.000000    -0.000000    -0.000000    0.000000    -0.000000    -0.000000    0.000000    -0.000000    -0.000000    0.000000    -0.000000    -0.000000    0.000000    -0.000000    -0.000000    0.000000    -0.000000    -0.000000    0.000000    -0.000000    0.000003    -9.999998    -0.000001    -0.000000    0.000000    -0.000000    -0.000000    0.000000    -0.000000    16.189316    -18.853405    -1.004644    -0.000001    28.091085    -0.000002    -11.349508    -16.735922    4.307469    0.000000    0.454783    -0.000001    -9.501371    -23.337507    -2.673153    0.000001    38.782444    0.000000    12.230407    -16.714123    -13.124103    0.000000    -3.623199    0.000000    
36.531647    91.584732    598.372620    5.040068    -6.630382    -158.264206    -0.448934    5.947096    -1.464172    -2.244659    5.942746    -1.278171    5.128791    -1.372148    -15.121672    5.128788    -1.372156    -15.121667    2.238579    -2.207794    -1.427289    -59.007576    1.986732    -23.235775    -48.358742    8.576995    -72.707802    5.549367    0.305868    7.916078    47.448177    38.866440    -34.355038    -34.999966    -0.000020    0.000035    -0.000000    0.000000    -0.000000    -0.000008    9.999993    0.000008    -0.000000    0.000000    -0.000000    -0.000000    0.000000    -0.000000    -0.000000    0.000000    -0.000000    -0.000000    0.000000    -0.000000    -0.000000    0.000000    -0.000000    -0.000000    0.000000    -0.000000    -0.000000    0.000000    -0.000000    -0.000000    0.000000    -0.000000    -0.000000    -10.000008    -0.000003    -0.000000    0.000000    -0.000000    -0.000000    0.000000    -0.000000    -8.070782    2.290787    3.529886    71.719879    7.628004    2.184754    2.729282    24.924210    78.806534    -53.834316    14.266010    -10.184147    -47.448227    38.866428    34.355038    34.999996    0.000001    0.000003    -0.000000    0.000000    -0.000000    -0.000001    10.000004    0.000009    -0.000000    0.000000    -0.000000    -0.000000    0.000000    -0.000000    -0.000000    0.000000    -0.000000    -0.000000    0.000000    -0.000000    -0.000000    0.000000    -0.000000    -0.000000    0.000000    -0.000000    -0.000000    0.000000    -0.000000    -0.000000    0.000000    -0.000000    0.000004    -9.999993    0.000004    -0.000000    0.000000    -0.000000    -0.000000    0.000000    -0.000000    16.212349    -18.982553    -0.986113    -0.000002    28.211712    0.000002    -11.354942    -16.733877    4.301977    -0.000000    0.457452    0.000000    -9.508299    -23.491102    -2.713581    0.000001    38.955883    -0.000002    12.214910    -16.760036    -13.085958    -0.000000    -3.630390    0.000000    
36.595650    91.558197    598.408875    5.030805    -6.666399    -158.262238    -0.445842    5.987105    -1.482213    -2.229202    5.982789    -1.296246    5.126645    -1.298442    -15.112579    5.126645    -1.298447    -15.112580    2.236066    -2.214013    -1.474424    -58.985752    1.952707    -23.252232    -48.412880    8.630380    -72.764664    5.486007    0.291978    7.870821    47.448170    38.866417    -34.355022    -34.999977    0.000006    -0.000002    -0.000000    0.000000    -0.000000    -0.000007    9.999995    0.000004    -0.000000    0.000000    -0.000000    -0.000000    0.000000    -0.000000    -0.000000    0.000000    -0.000000    -0.000000    0.000000    -0.000000    -0.000000    0.000000    -0.000000    -0.000000    0.000000    -0.000000    -0.000000    0.000000    -0.000000    -0.000000    0.000000    -0.000000    -0.000003    -10.000009    0.000003    -0.000000    0.000000    -0.000000    -0.000000    0.000000    -0.000000    -8.006933    2.155713    3.591684    71.561234    7.531378    2.126020    2.361661    25.000868    79.129845    -53.660038    14.363771    -10.312274    -47.448208    38.866432    34.355030    34.999996    -0.000004    -0.000003    -0.000000    0.000000    -0.000000    -0.000004    10.000001    -0.000008    -0.000000    0.000000    -0.000000    -0.000000    0.000000    -0.000000    -0.000000    0.000000    -0.000000    -0.000000    0.000000    -0.000000    -0.000000    0.000000    -0.000000    -0.000000    0.000000    -0.000000    -0.000000    0.000000    -0.000000    -0.000000    0.000000    -0.000000    -0.000003    -9.999998    0.000002    -0.000000    0.000000    -0.000000    -0.000000    0.000000    -0.000000    16.230175    -19.106501    -0.971538    -0.000001    28.320625    0.000003    -11.357884    -16.721012    4.281569    0.000000    0.446646    -0.000002    -9.520798    -23.638483    -2.757715    -0.000001    39.127529    0.000000    12.203918    -16.812468    -13.047771    -0.000000    -3.638441    -0.000000    
